# xmcd
#
# Track frame offsets:
#	150
#	10003
#	21398
#	35932
#	49120
#	61364
#	71456
#	85000
#	95665
#	107815
#	117297
#	132090
#	144055
#	156375
#
# Disc length: 2230 seconds
#
# Revision: 2
# Processed by: cddbd v1.5.2PL0 Copyright (c) Steve Scherf et al.
# Submitted via: EasyCDDAExtractor 15.3.0.1
#
DISCID=bb08b40e
DTITLE=Various Artist - Country No 1 Hits
DYEAR=2006
DGENRE=Country
TTITLE0=Johny Cash - Ballad Of A Teenage Queen
TTITLE1=Kity Wells - It Wasn't God Who Made Honky Tonk Angels
TTITLE2=Loretta Lynn - Coal Miner's Daughter
TTITLE3=Kenny Rogers - Ruby (Don't Take Your Love To Town)
TTITLE4=Porter Wagoner - A Satisfied Mind
TTITLE5=Faron Young - Hello Walls
TTITLE6=David Houston - Almost Persuaded
TTITLE7=Hank Locklin - Please Help Me I'm Falling
TTITLE8=Johnny Paycheck - Take This Job And Shove It
TTITLE9=Charley Pride - Kiss An Angel Good Morning
TTITLE10=Don Gibson - Woman (Sensuous Woman)
TTITLE11=Jack Greene - There Goes My Everything
TTITLE12=Lynn Anderson - How Can I Unlove You
TTITLE13=Roger Miller - King Of The Road
EXTD=
EXTT0=
EXTT1=
EXTT2=
EXTT3=
EXTT4=
EXTT5=
EXTT6=
EXTT7=
EXTT8=
EXTT9=
EXTT10=
EXTT11=
EXTT12=
EXTT13=
PLAYORDER=
